<svg width="547" height="404" viewBox="0 0 547 404" fill="none" xmlns="http://www.w3.org/2000/svg">
<path d="M246.91 0.239433C249.131 -0.104708 256.401 0.0234108 258.95 0.0230202L282.163 0.0460634C335.015 0.157001 388.065 2.94215 440.261 11.582C465.499 15.464 488.831 20.2609 513.065 28.7566C529.077 34.3691 551.847 45.6597 545.761 67.0496C543.69 74.3226 536.499 85.7808 532.491 92.6558C524.671 105.971 516.726 119.212 508.651 132.377C494.011 156.21 478.968 179.795 463.534 203.121C441.851 237.117 418.573 270.066 393.776 301.859C370.909 331.234 346.815 359.617 317.593 382.969C310.62 388.543 303.14 392.824 295.249 396.93C289.499 399.918 275.464 404.238 268.933 402.824C235.321 395.555 210.284 366.566 187.502 342.668C167.436 321.617 150.085 297.84 132.698 274.637C98.2974 228.184 67.815 179.434 37.2548 130.642C29.2099 117.814 21.4568 104.806 14.0009 91.6277C9.88765 84.4562 5.34977 77.2566 2.07086 69.6664C1.10172 67.4222 0.420073 65.2328 0.141948 62.7879C-0.602193 56.2433 1.6236 50.1914 5.7818 45.2101C8.16578 42.3543 11.0521 39.7246 14.1795 37.7035C49.3322 14.9859 153.953 4.56717 197.557 1.86327C206.876 1.27889 216.206 0.898798 225.541 0.723017C231.318 0.642939 240.984 0.841775 246.439 0.291384L246.91 0.239433ZM42.992 89.9031C45.5287 95.0281 48.5244 99.6656 51.4896 104.549C56.8666 113.377 62.3072 122.166 67.8111 130.914C83.4474 155.985 99.5408 180.767 116.083 205.25C125.984 219.77 136.358 233.953 146.156 248.312C156.845 263.719 168.434 278.691 180.081 293.391C201.354 320.238 223.891 348.648 252.702 367.758C257.879 371.195 263.231 374.832 269.452 375.969C278.972 377.707 287.761 372.609 295.253 367.352C336.808 338.191 379.409 278.445 408.909 236.57C433.624 201.75 457.304 166.202 479.909 129.977C483.296 124.577 502.972 94.5289 503.948 90.4949L503.534 90.0136C485.253 95.1 466.761 99.3894 448.108 102.87C410.858 109.613 372.87 112.657 335.089 114.392C318.261 115.318 301.417 115.877 284.565 116.07C274.714 116.13 265.253 115.799 255.464 115.701C227.941 115.605 200.431 114.498 172.989 112.383C142.572 109.998 113.361 105.805 83.4306 99.6957C69.6435 96.882 56.5791 92.9523 42.992 89.9031ZM293.382 96.1152C312.311 96.0195 331.405 95.9047 350.296 94.6078C381.108 92.4929 499.343 80.3972 518.448 60.2472C519.483 59.1558 519.999 58.284 520.136 56.7871C518.483 51.3195 495.706 46.1035 489.843 44.4265C435.468 28.8648 378.604 23.1422 322.237 21.332C299.89 20.6066 275.968 19.6121 253.619 20.5617C238.858 21.0363 224.167 21.2844 209.402 22.166C156.308 25.3371 103.019 31.8144 51.6283 45.8976C45.649 47.5363 39.6869 49.3918 33.8072 51.3086C31.1076 52.1882 27.0533 53.8699 27.4662 57.3097C27.6759 59.3859 29.3853 61.1586 30.9986 62.3281C36.3783 65.8562 44.5013 68.4176 50.6142 70.4222C83.6564 81.2578 119.248 86.9988 153.733 90.9769C169.98 92.8508 189.577 95.0332 205.894 95.6613C228.671 96.5379 252.171 96.5031 274.991 96.5484C281.112 96.5605 287.515 95.9804 293.382 96.1152Z" fill="#FEFEFE"/>
</svg>
